<?xml version="1.0" encoding="utf-8"?>
<svg version="1.1" xmlns="http://www.w3.org/2000/svg" xmlns:xlink="http://www.w3.org/1999/xlink" viewBox="500 0 300 300">
  <g>
    <path style="fill:#C3C5C8;" d="M724.392,171.049l-2.242-6.165c1.312-0.623,2.744-1.002,4.24-1.059c5.739-0.218,8.801-4.802,6.807-10.185c-1.993-5.383,0.643-11.75,5.861-14.147c5.214-2.396,6.292-7.804,2.388-12.014c-3.903-4.212-3.903-11.102,0-15.314c3.904-4.21,2.826-9.617-2.388-12.014c-5.218-2.396-7.854-8.763-5.861-14.146c1.994-5.383-1.067-9.967-6.807-10.185c-5.735-0.218-10.608-5.09-10.826-10.828c-0.22-5.736-4.802-8.799-10.185-6.806c-5.387,1.996-11.751-0.643-14.148-5.858c-2.396-5.218-7.803-6.292-12.014-2.391c-4.212,3.902-11.102,3.902-15.315,0c-4.211-3.901-9.617-2.827-12.012,2.391c-2.397,5.215-8.766,7.854-14.148,5.858c-5.385-1.993-9.967,1.07-10.185,6.806c-0.22,5.738-5.091,10.61-10.83,10.828c-5.734,0.218-8.799,4.802-6.805,10.185c1.995,5.384-0.644,11.75-5.859,14.146c-5.218,2.397-6.292,7.804-2.39,12.014c3.901,4.212,3.901,11.102,0,15.314c-3.902,4.21-2.828,9.617,2.39,12.014c5.216,2.397,7.854,8.764,5.859,14.147c-1.994,5.383,1.07,9.967,6.805,10.185c1.498,0.057,2.933,0.436,4.244,1.059l-2.246,6.165l-33.762,92.762l27.268-13.521l5.418-2.686l2.423,5.54v-0.003l12.197,27.888l33.798-92.859c3.378-1.836,7.609-1.836,10.986,0l33.799,92.859l14.62-33.425l5.416,2.686l27.267,13.521L724.392,171.049z"/>
    <g>
      <g>
        <polygon style="fill:#298DC1;" points="710.852,266.828 655.049,113.518 702.354,96.301 758.154,249.61 725.472,233.403"/>
        <polygon style="fill:#FFFFFF;" points="716.309,196.037 708.472,198.891 723.047,238.943 725.472,233.403 730.888,236.089"/>
        <path style="fill:#D1D3D3;" d="M702.354,96.301l-47.306,17.217l25.46,69.947c3.968,2.629,8.562,1.304,10.722-3.395c2.397-5.215,8.762-7.854,14.148-5.858c5.383,1.993,9.965-1.07,10.185-6.806c0.192-5.058,4.003-9.437,8.828-10.556L702.354,96.301z"/>
      </g>
      <g>
        <polygon style="fill:#298DC1;" points="632.269,266.828 688.071,113.518 640.764,96.301 584.963,249.61 617.648,233.403"/>
        <polygon style="fill:#FFFFFF;" points="626.808,196.037 634.648,198.891 620.071,238.943 617.648,233.403 612.23,236.089"/>
        <path style="fill:#D1D3D3;" d="M640.764,96.301l47.308,17.217l-25.46,69.947c-3.968,2.629-8.565,1.304-10.724-3.395c-2.398-5.215-8.764-7.854-14.146-5.858c-5.385,1.993-9.967-1.07-10.185-6.806c-0.194-5.058-4.003-9.437-8.832-10.556L640.764,96.301z"/>
      </g>
      <g>
        <path style="fill:#084975;" d="M663.901,35.736c4.214,3.902,11.104,3.902,15.315,0c4.211-3.903,9.617-2.826,12.014,2.389c2.397,5.218,8.762,7.854,14.148,5.861c5.383-1.995,9.965,1.068,10.185,6.806c0.218,5.736,5.091,10.608,10.826,10.827c5.739,0.219,8.801,4.802,6.807,10.186c-1.993,5.385,0.643,11.749,5.861,14.147c5.214,2.397,6.292,7.804,2.388,12.015c-3.903,4.211-3.903,11.101,0,15.312c3.904,4.211,2.826,9.618-2.388,12.015c-5.218,2.398-7.854,8.763-5.861,14.146c1.994,5.384-1.067,9.967-6.807,10.185c-5.735,0.22-10.608,5.093-10.826,10.828c-0.22,5.738-4.802,8.801-10.185,6.806c-5.387-1.993-11.751,0.644-14.148,5.861c-2.396,5.218-7.803,6.29-12.014,2.389c-4.212-3.902-11.102-3.902-15.315,0c-4.211,3.902-9.617,2.829-12.012-2.389c-2.397-5.217-8.766-7.854-14.148-5.861c-5.385,1.996-9.967-1.067-10.185-6.806c-0.22-5.735-5.091-10.608-10.83-10.828c-5.734-0.218-8.799-4.802-6.805-10.185c1.995-5.383-0.644-11.748-5.859-14.146c-5.218-2.397-6.292-7.804-2.39-12.015c3.901-4.21,3.901-11.101,0-15.312c-3.902-4.211-2.828-9.617,2.39-12.015c5.216-2.397,7.854-8.762,5.859-14.147c-1.994-5.384,1.07-9.967,6.805-10.186c5.739-0.219,10.61-5.091,10.83-10.827c0.218-5.737,4.8-8.801,10.185-6.806c5.383,1.993,11.751-0.643,14.148-5.861C654.284,32.911,659.69,31.833,663.901,35.736z"/>
        <path style="fill:#5BC1A5;" d="M729.082,105.623c0-31.769-25.754-57.523-57.523-57.523c-31.767,0-57.523,25.754-57.523,57.523c0,31.769,25.756,57.522,57.523,57.522C703.328,163.145,729.082,137.391,729.082,105.623z"/>
        <path style="fill:#FFFFFF;" d="M717.218,105.623c0-25.217-20.442-45.658-45.659-45.658s-45.656,20.441-45.656,45.658c0,25.216,20.44,45.657,45.656,45.657S717.218,130.839,717.218,105.623z"/>
        <path style="fill:#298DC1;" d="M675.371,125.975c-2.116-0.751-5.576-0.751-7.693,0l-12.302,4.375c-2.114,0.752-3.796-0.469-3.733-2.713l0.358-13.053c0.063-2.243-1.008-5.536-2.378-7.315l-7.96-10.349c-1.37-1.78-0.729-3.755,1.426-4.39l12.522-3.692c2.154-0.635,4.953-2.669,6.226-4.521l7.38-10.771c1.271-1.852,3.348-1.852,4.616,0l7.384,10.771c1.266,1.852,4.067,3.886,6.221,4.521l12.523,3.692c2.154,0.635,2.795,2.61,1.427,4.39l-7.962,10.349c-1.368,1.779-2.438,5.072-2.377,7.315l0.358,13.053c0.063,2.244-1.617,3.466-3.734,2.713L675.371,125.975z"/>
      </g>
      <path style="opacity:0.2;fill:#FFFFFF;" d="M680.458,48.787l-65.734,65.736c1.115,7.181,3.569,13.916,7.084,19.958l78.61-78.612C694.375,52.357,687.64,49.903,680.458,48.787z M721.189,76.549l-0.006,0.005c0.031,0.055,0.066,0.105,0.098,0.159C721.25,76.659,721.221,76.603,721.189,76.549z M722.894,79.677l-77.266,77.267c7.795,3.951,16.594,6.202,25.93,6.202c1.963,0,3.903-0.1,5.814-0.292l51.419-51.418c0.19-1.912,0.29-3.851,0.29-5.813C729.082,96.284,726.846,87.473,722.894,79.677z M645.615,156.958l0.014-0.015c-0.916-0.464-1.825-0.939-2.713-1.448C643.802,156.004,644.699,156.495,645.615,156.958z M642.486,155.252c0.058,0.033,0.114,0.063,0.171,0.095c-0.055-0.032-0.109-0.068-0.165-0.101L642.486,155.252z"/>
      <path style="opacity:0.6;fill:#D1D3D3;" d="M715.746,68.8l-81.01,81.009c3.328,2.774,6.979,5.173,10.879,7.149l77.279-77.281C720.921,75.776,718.523,72.127,715.746,68.8z M671.559,48.1c-0.566,0-1.127,0.027-1.69,0.042l-55.79,55.792c-0.018,0.562-0.043,1.122-0.043,1.688c0,3.019,0.234,5.982,0.684,8.876l65.715-65.715C677.541,48.334,674.578,48.1,671.559,48.1z"/>
    </g>
  </g>
</svg>